<?xml version="1.0" encoding="utf-8"?>
<!-- Generator: Adobe Illustrator 28.1.0, SVG Export Plug-In . SVG Version: 6.00 Build 0)  -->
<svg xmlns:xlink="http://www.w3.org/1999/xlink" version="1.1" id="Layer_1" xmlns="http://www.w3.org/2000/svg" x="0px"
     y="0px"
     viewBox="0 0 264 162" style="enable-background:new 0 0 264 162;" xml:space="preserve">
<style type="text/css">
	.st0{clip-path:url(#SVGID_00000152957780831401943180000015617159496252267678_);}
	.st1{fill-rule:evenodd;clip-rule:evenodd;fill:#FFFFFF;}
	.st2{fill:#FFFFFF;filter:url(#Adobe_OpacityMaskFilter);}
	.st3{fill-rule:evenodd;clip-rule:evenodd;}
	.st4{mask:url(#path-1-outside-1_958:647_00000109029881769396389150000003323412774850338458_);fill:#EFEFEF;}
	.st5{fill-rule:evenodd;clip-rule:evenodd;fill:#EAECF0;}
	.st6{fill:#EAECF0;}
	.st7{fill-rule:evenodd;clip-rule:evenodd;fill:#E5E5E5;}
	.st8{fill:#E5E5E5;}
</style>
    <g>
	<defs>
		<rect id="SVGID_1_" x="0" width="264" height="162"/>
	</defs>
        <clipPath id="SVGID_00000010305757644781482190000008067340756578165889_">
		<use xlink:href="#SVGID_1_" style="overflow:visible;"/>
	</clipPath>
        <g style="clip-path:url(#SVGID_00000010305757644781482190000008067340756578165889_);">
		<path class="st1" d="M1,151.5l11,9.2l12-10l12,10l12-10l12,10l12-10l12,10l12-10l12,10l12-10l12,10l12-10l12,10l12-10l12,10l12-10
			l12,10l12-10l12,10l12-10l12,10l11-9V1H1V151.5z"/>
            <defs>
			<filter id="Adobe_OpacityMaskFilter" filterUnits="userSpaceOnUse" x="0" y="0" width="264" height="162">
				<feColorMatrix type="matrix" values="1 0 0 0 0  0 1 0 0 0  0 0 1 0 0  0 0 0 1 0"/>
			</filter>
		</defs>

            <mask maskUnits="userSpaceOnUse" x="0" y="0" width="264" height="162"
                  id="path-1-outside-1_958:647_00000109029881769396389150000003323412774850338458_">
			<rect x="0" class="st2" width="264" height="162"/>
                <path class="st3" d="M1,151.5l11,9.2l12-10l12,10l12-10l12,10l12-10l12,10l12-10l12,10l12-10l12,10l12-10l12,10l12-10l12,10
				l12-10l12,10l12-10l12,10l12-10l12,10l11-9V1H1V151.5z"/>
		</mask>
            <path class="st4" d="M264,1V0l-1,0v1H264z M1,0L0,0l0,1h1V0z M263.6,152.5l0.4-0.3v-0.5h-1L263.6,152.5z M251.4,161.5l0.6,0.5
			l0.6-0.5l-0.6-0.8L251.4,161.5z M240.6,149.9l-0.6-0.5l-0.6,0.5l0.6,0.8L240.6,149.9z M227.4,161.5l0.6,0.5l0.6-0.5l-0.6-0.8
			L227.4,161.5z M216.6,149.9l-0.6-0.5l-0.6,0.5l0.6,0.8L216.6,149.9z M203.4,161.5l0.6,0.5l0.6-0.5l-0.6-0.8L203.4,161.5z
			 M192.6,149.9l-0.6-0.5l-0.6,0.5l0.6,0.8L192.6,149.9z M179.4,161.5l0.6,0.5l0.6-0.5l-0.6-0.8L179.4,161.5z M168.6,149.9l-0.6-0.5
			l-0.6,0.5l0.6,0.8L168.6,149.9z M155.4,161.5l0.6,0.5l0.6-0.5l-0.6-0.8L155.4,161.5z M144.6,149.9l-0.6-0.5l-0.6,0.5l0.6,0.8
			L144.6,149.9z M131.4,161.5l0.6,0.5l0.6-0.5l-0.6-0.8L131.4,161.5z M120.6,149.9l-0.6-0.5l-0.6,0.5l0.6,0.8L120.6,149.9z
			 M107.4,161.5l0.6,0.5l0.6-0.5l-0.6-0.8L107.4,161.5z M96.6,149.9l-0.6-0.5l-0.6,0.5l0.6,0.8L96.6,149.9z M83.4,161.5L84,162
			l0.6-0.5l-0.6-0.8L83.4,161.5z M72.6,149.9l-0.6-0.5l-0.6,0.5l0.6,0.8L72.6,149.9z M59.4,161.5L60,162l0.6-0.5l-0.6-0.8
			L59.4,161.5z M48.6,149.9l-0.6-0.5l-0.6,0.5l0.6,0.8L48.6,149.9z M35.4,161.5L36,162l0.6-0.5l-0.6-0.8L35.4,161.5z M24.6,149.9
			l-0.6-0.5l-0.6,0.5l0.6,0.8L24.6,149.9z M11.4,161.5L12,162l0.6-0.5l-0.6-0.8L11.4,161.5z M0,151.5l0,0.5l0.4,0.3l0.6-0.8H0z
			 M263,0L1,0v2h262V0z M264,151.7V1h-2v150.7H264z M252.6,161.5l11-9l-1.3-1.5l-11,9L252.6,161.5z M239.4,151.5l12,10l1.3-1.5
			l-12-10L239.4,151.5z M228.6,161.5l12-10l-1.3-1.5l-12,10L228.6,161.5z M215.4,151.5l12,10l1.3-1.5l-12-10L215.4,151.5z
			 M204.6,161.5l12-10l-1.3-1.5l-12,10L204.6,161.5z M191.4,151.5l12,10l1.3-1.5l-12-10L191.4,151.5z M180.6,161.5l12-10l-1.3-1.5
			l-12,10L180.6,161.5z M167.4,151.5l12,10l1.3-1.5l-12-10L167.4,151.5z M156.6,161.5l12-10l-1.3-1.5l-12,10L156.6,161.5z
			 M143.4,151.5l12,10l1.3-1.5l-12-10L143.4,151.5z M132.6,161.5l12-10l-1.3-1.5l-12,10L132.6,161.5z M119.4,151.5l12,10l1.3-1.5
			l-12-10L119.4,151.5z M108.6,161.5l12-10l-1.3-1.5l-12,10L108.6,161.5z M95.4,151.5l12,10l1.3-1.5l-12-10L95.4,151.5z M84.6,161.5
			l12-10l-1.3-1.5l-12,10L84.6,161.5z M71.4,151.5l12,10l1.3-1.5l-12-10L71.4,151.5z M60.6,161.5l12-10l-1.3-1.5l-12,10L60.6,161.5z
			 M47.4,151.5l12,10l1.3-1.5l-12-10L47.4,151.5z M36.6,161.5l12-10l-1.3-1.5l-12,10L36.6,161.5z M23.4,151.5l12,10l1.3-1.5l-12-10
			L23.4,151.5z M12.6,161.5l12-10l-1.3-1.5l-12,10L12.6,161.5z M0.4,152.3l11,9.2l1.3-1.5l-11-9.2L0.4,152.3z M0,1l0,150.5h2V1H0z"
            />
            <path class="st5" d="M204,160.7l-12-10l-12,10l-12-10l-12,10l-12-10l-12,10l-12-10l-12,10l-12-10l-12,10l-12-10l-12,10l-12-10
			l-12,10l-12-10l-12,10V29h204v121.7L204,160.7z"/>
            <path class="st5" d="M240,150.7l-12,10l-2-1.7V58h25v101.9L240,150.7z M251,164h-25v-1v-1h25V164z"/>
            <path class="st6" d="M239,36c-8,0-14-6-14-14s6-14,14-14s14,6,14,14S247,36,239,36z M251,45v-5h-25v5H251z"/>
            <path class="st6" d="M31,11H5V5h26V11z M55,11H33V5h22V11z M79,11H57V5h22V11z M102,11H89V5h13V11z M87,11h-6V5h6V11z M110,11h-6
			V5h6V11z"/>
            <path class="st6" d="M98,16v4H6v-4H98z M5,21h94v-6H5V21z"/>
            <path class="st6" d="M96,19h-2v-2h2V19z"/>
	</g>
</g>
    <g>
	<path id="Shape_00000126299653533232392880000010987257983727646127_" class="st1" d="M62.6,73.7L62.6,73.7L62.6,73.7h109.8V49.4
		H62.6V73.7L62.6,73.7z"/>
        <path id="Shape_00000046312268392167163770000008291021625964317865_" class="st1" d="M62.6,129.8L62.6,129.8L62.6,129.8h109.8
		V77.5H62.6V129.8L62.6,129.8z"/>
        <path id="Shape_00000141438448105596173700000010980637045410946751_" class="st7" d="M119.9,56.8L119.9,56.8L119.9,56.8h25V55h-25
		V56.8L119.9,56.8z"/>
        <path id="Shape_00000124871473651849100620000009371173652709733275_" class="st7" d="M72.1,59.6L72.1,59.6L72.1,59.6h72.8v-1.7
		H72.1V59.6L72.1,59.6z"/>
        <path id="Shape_00000163037312627070463600000005727958468000933516_" class="st7" d="M72.1,68.1L72.1,68.1L72.1,68.1h72.8v-7H72.1
		V68.1L72.1,68.1z"/>
        <path class="st8" d="M150.9,61.6c0,4,3.2,7.2,7.2,7.2s7.2-3.2,7.2-7.2s-3.2-7.2-7.2-7.2S150.9,57.6,150.9,61.6z M155.3,61.8
		l2.1-2.1v-4.3h1.4v5l-2.5,2.5L155.3,61.8z"/>
        <path class="st8" d="M69.7,116.9l-1.2-1.2c-0.3-0.2-0.7-0.2-0.9,0l-2,2c-0.2,0.3-0.2,0.7,0,0.9l1.2,1.2L69.7,116.9z M67.5,120.4
		l6.1,6.1h2.9v-2.9l-6.1-6.1C70.4,117.5,67.5,120.4,67.5,120.4z"/>
        <path id="Shape_00000008869573103818805090000012332552996264749210_" class="st7" d="M72.1,86.2L72.1,86.2L72.1,86.2h91.1v-1.7
		H72.1V86.2L72.1,86.2z"/>
        <path id="Shape_00000083787003528389096980000006025077692061589649_" class="st7" d="M72.1,94.7L72.1,94.7L72.1,94.7h91.1v-7H72.1
		V94.7L72.1,94.7z"/>
        <path id="Shape_00000127733278832334529820000000828037354175425420_" class="st7" d="M72.1,101.8L72.1,101.8L72.1,101.8h91.1v-1.7
		H72.1V101.8L72.1,101.8z"/>
        <path id="Shape_00000125573370266228406630000008889237060991149479_" class="st7" d="M72.1,110.3L72.1,110.3L72.1,110.3h91.1v-7
		H72.1V110.3L72.1,110.3z"/>
</g>
</svg>
