<?xml version="1.0" encoding="utf-8"?>
<!-- Generator: Adobe Illustrator 28.1.0, SVG Export Plug-In . SVG Version: 6.00 Build 0)  -->
<svg xmlns:xlink="http://www.w3.org/1999/xlink" version="1.1" id="Layer_1" xmlns="http://www.w3.org/2000/svg" x="0px"
     y="0px"
     viewBox="0 0 264 162" style="enable-background:new 0 0 264 162;" xml:space="preserve">
<style type="text/css">
	.st0{clip-path:url(#SVGID_00000038412880693331899280000015807512584648391317_);}
	.st1{fill-rule:evenodd;clip-rule:evenodd;fill:#FFFFFF;}
	.st2{fill:#FFFFFF;filter:url(#Adobe_OpacityMaskFilter);}
	.st3{fill-rule:evenodd;clip-rule:evenodd;}
	.st4{mask:url(#path-1-outside-1_958:647_00000109029881769396389150000003323412774850338458_);fill:#EFEFEF;}
	.st5{fill-rule:evenodd;clip-rule:evenodd;fill:#EAECF0;}
	.st6{fill:#EAECF0;}
	.st7{fill-rule:evenodd;clip-rule:evenodd;fill:#E5E5E5;}
	.st8{fill:#E5E5E5;}
</style>
    <g>
	<defs>
		<rect id="SVGID_1_" width="264" height="162"/>
	</defs>
        <clipPath id="SVGID_00000156564297123299126820000011253578348992066466_">
		<use xlink:href="#SVGID_1_" style="overflow:visible;"/>
	</clipPath>
        <g style="clip-path:url(#SVGID_00000156564297123299126820000011253578348992066466_);">
		<path class="st1" d="M263,1H1v150.7l11,9l12-10l12,10l12-10l12,10l12-10l12,10l12-10l12,10l12-10l12,10l12-10l12,10l12-10l12,10
			l12-10l12,10l12-10l12,10l12-10l12,10l11-9.2V1z"/>
            <defs>
			<filter id="Adobe_OpacityMaskFilter" filterUnits="userSpaceOnUse" x="0" y="0" width="264" height="162">
				<feColorMatrix type="matrix" values="1 0 0 0 0  0 1 0 0 0  0 0 1 0 0  0 0 0 1 0"/>
			</filter>
		</defs>

            <mask maskUnits="userSpaceOnUse" x="0" y="0" width="264" height="162"
                  id="path-1-outside-1_958:647_00000109029881769396389150000003323412774850338458_">
			<rect class="st2" width="264" height="162"/>
                <path class="st3" d="M263,1H1v150.7l11,9l12-10l12,10l12-10l12,10l12-10l12,10l12-10l12,10l12-10l12,10l12-10l12,10l12-10l12,10
				l12-10l12,10l12-10l12,10l12-10l12,10l11-9.2V1z"/>
		</mask>
            <path class="st4" d="M1,1V0H0v1H1z M263,1h1V0h-1V1z M1,151.7H0v0.5l0.4,0.3L1,151.7z M12,160.7l-0.6,0.8L12,162l0.6-0.5L12,160.7
			z M24,150.7l0.6-0.8l-0.6-0.5l-0.6,0.5L24,150.7z M36,160.7l-0.6,0.8L36,162l0.6-0.5L36,160.7z M48,150.7l0.6-0.8l-0.6-0.5
			l-0.6,0.5L48,150.7z M60,160.7l-0.6,0.8L60,162l0.6-0.5L60,160.7z M72,150.7l0.6-0.8l-0.6-0.5l-0.6,0.5L72,150.7z M84,160.7
			l-0.6,0.8L84,162l0.6-0.5L84,160.7z M96,150.7l0.6-0.8l-0.6-0.5l-0.6,0.5L96,150.7z M108,160.7l-0.6,0.8l0.6,0.5l0.6-0.5
			L108,160.7z M120,150.7l0.6-0.8l-0.6-0.5l-0.6,0.5L120,150.7z M132,160.7l-0.6,0.8l0.6,0.5l0.6-0.5L132,160.7z M144,150.7l0.6-0.8
			l-0.6-0.5l-0.6,0.5L144,150.7z M156,160.7l-0.6,0.8l0.6,0.5l0.6-0.5L156,160.7z M168,150.7l0.6-0.8l-0.6-0.5l-0.6,0.5L168,150.7z
			 M180,160.7l-0.6,0.8l0.6,0.5l0.6-0.5L180,160.7z M192,150.7l0.6-0.8l-0.6-0.5l-0.6,0.5L192,150.7z M204,160.7l-0.6,0.8l0.6,0.5
			l0.6-0.5L204,160.7z M216,150.7l0.6-0.8l-0.6-0.5l-0.6,0.5L216,150.7z M228,160.7l-0.6,0.8l0.6,0.5l0.6-0.5L228,160.7z M240,150.7
			l0.6-0.8l-0.6-0.5l-0.6,0.5L240,150.7z M252,160.7l-0.6,0.8l0.6,0.5l0.6-0.5L252,160.7z M263,151.5l0.6,0.8l0.4-0.3v-0.5H263z
			 M1,2h262V0H1V2z M2,151.7V1H0v150.7H2z M12.6,159.9l-11-9l-1.3,1.5l11,9L12.6,159.9z M23.4,149.9l-12,10l1.3,1.5l12-10
			L23.4,149.9z M36.6,159.9l-12-10l-1.3,1.5l12,10L36.6,159.9z M47.4,149.9l-12,10l1.3,1.5l12-10L47.4,149.9z M60.6,159.9l-12-10
			l-1.3,1.5l12,10L60.6,159.9z M71.4,149.9l-12,10l1.3,1.5l12-10L71.4,149.9z M84.6,159.9l-12-10l-1.3,1.5l12,10L84.6,159.9z
			 M95.4,149.9l-12,10l1.3,1.5l12-10L95.4,149.9z M108.6,159.9l-12-10l-1.3,1.5l12,10L108.6,159.9z M119.4,149.9l-12,10l1.3,1.5
			l12-10L119.4,149.9z M132.6,159.9l-12-10l-1.3,1.5l12,10L132.6,159.9z M143.4,149.9l-12,10l1.3,1.5l12-10L143.4,149.9z
			 M156.6,159.9l-12-10l-1.3,1.5l12,10L156.6,159.9z M167.4,149.9l-12,10l1.3,1.5l12-10L167.4,149.9z M180.6,159.9l-12-10l-1.3,1.5
			l12,10L180.6,159.9z M191.4,149.9l-12,10l1.3,1.5l12-10L191.4,149.9z M204.6,159.9l-12-10l-1.3,1.5l12,10L204.6,159.9z
			 M215.4,149.9l-12,10l1.3,1.5l12-10L215.4,149.9z M228.6,159.9l-12-10l-1.3,1.5l12,10L228.6,159.9z M239.4,149.9l-12,10l1.3,1.5
			l12-10L239.4,149.9z M252.6,159.9l-12-10l-1.3,1.5l12,10L252.6,159.9z M262.4,150.8l-11,9.2l1.3,1.5l11-9.2L262.4,150.8z M262,1
			v150.5h2V1H262z"/>
            <path class="st5" d="M48,150.7V29h204v131.7l-12-10l-12,10l-12-10l-12,10l-12-10l-12,10l-12-10l-12,10l-12-10l-12,10l-12-10
			l-12,10l-12-10l-12,10l-12-10l-12,10L48,150.7z"/>
            <path class="st5" d="M13,159.9V58h25v101l-2,1.7l-12-10L13,159.9z M13,162h25v1v1H13V162z"/>
            <path class="st6" d="M11,22c0-8,6-14,14-14s14,6,14,14s-6,14-14,14S11,30,11,22z M38,45v-5H13v5H38z"/>
            <path class="st6" d="M233,5h26v6h-26V5z M209,5h22v6h-22V5z M185,5h22v6h-22V5z M162,5h13v6h-13V5z M177,5h6v6h-6V5z M154,5h6v6
			h-6V5z"/>
            <path class="st6" d="M258,16v4h-92v-4H258z M259,15h-94v6h94V15z"/>
            <path class="st6" d="M168,17h2v2h-2V17z"/>
	</g>
</g>
    <g>
	<path id="Shape_00000126299653533232392880000010987257983727646127_" class="st1" d="M201.4,73.7V49.4H91.6v24.3H201.4L201.4,73.7
		L201.4,73.7L201.4,73.7z"/>
        <path id="Shape_00000046312268392167163770000008291021625964317865_" class="st1" d="M201.4,129.8V77.5H91.6v52.3H201.4
		L201.4,129.8L201.4,129.8L201.4,129.8z"/>
        <path id="Shape_00000141438448105596173700000010980637045410946751_" class="st7" d="M144.1,56.8V55h-25v1.8H144.1L144.1,56.8
		L144.1,56.8L144.1,56.8z"/>
        <path id="Shape_00000124871473651849100620000009371173652709733275_" class="st7" d="M191.9,59.6v-1.7h-72.8v1.7H191.9L191.9,59.6
		L191.9,59.6L191.9,59.6z"/>
        <path id="Shape_00000163037312627070463600000005727958468000933516_" class="st7" d="M191.9,68.1v-7h-72.8v7H191.9L191.9,68.1
		L191.9,68.1L191.9,68.1z"/>
        <path class="st8" d="M105.9,54.4c-4,0-7.2,3.2-7.2,7.2s3.2,7.2,7.2,7.2s7.2-3.2,7.2-7.2S109.9,54.4,105.9,54.4z M107.7,62.9
		l-2.5-2.5v-5h1.4v4.3l2.1,2.1L107.7,62.9z"/>
        <path class="st8" d="M197.2,119.8l1.2-1.2c0.2-0.2,0.2-0.6,0-0.9l-2-2c-0.2-0.2-0.6-0.2-0.9,0l-1.2,1.2L197.2,119.8z M193.6,117.5
		l-6.1,6.1v2.9h2.9l6.1-6.1C196.5,120.4,193.6,117.5,193.6,117.5z"/>
        <path id="Shape_00000008869573103818805090000012332552996264749210_" class="st7" d="M191.9,86.2v-1.7h-91.1v1.7H191.9L191.9,86.2
		L191.9,86.2L191.9,86.2z"/>
        <path id="Shape_00000083787003528389096980000006025077692061589649_" class="st7" d="M191.9,94.7v-7h-91.1v7H191.9L191.9,94.7
		L191.9,94.7L191.9,94.7z"/>
        <path id="Shape_00000127733278832334529820000000828037354175425420_" class="st7" d="M191.9,101.8v-1.7h-91.1v1.7H191.9
		L191.9,101.8L191.9,101.8L191.9,101.8z"/>
        <path id="Shape_00000125573370266228406630000008889237060991149479_" class="st7" d="M191.9,110.3v-7h-91.1v7H191.9L191.9,110.3
		L191.9,110.3L191.9,110.3z"/>
</g>
</svg>
