<?xml version="1.0" encoding="utf-8"?>
<!-- Generator: Adobe Illustrator 27.9.0, SVG Export Plug-In . SVG Version: 6.00 Build 0)  -->
<svg version="1.1" id="Layer_1" xmlns="http://www.w3.org/2000/svg" xmlns:xlink="http://www.w3.org/1999/xlink" x="0px" y="0px"
	 viewBox="0 0 800 800" style="enable-background:new 0 0 800 800;" xml:space="preserve">
<style type="text/css">
	.st0{fill:#FFFFFF;}
	.st1{fill:#A2A9B1;}
	.st2{fill:#C8CCD1;}
	.st3{fill:#3366CC;}
</style>
<g>
	<path class="st0" d="M629.2,7.6H193c0,0,0,0,0,0c-2.2,0-4,1.8-4,4l-0.8,202.9h29.6l21.6,21.6H315v43.2h-127l-0.1,21.6h105.5V560
		c0,23.9-19.3,43.2-43.2,43.2h-62.5v103.4c2.9-3.3,8-7.1,16-7.1c8.2,0,11.7,3.9,14.5,7c2,2.2,3.8,4.1,7.3,5.3c3,0.9,5-0.6,9.1-4.8
		c3.5-3.5,7.5-7.5,13.4-7.5c6.5,0,9.7,4.2,12.1,7.3c2.4,3.1,3.8,4.8,7.2,4.8c3.5,0,5.2-1.7,8.1-4.7c3.2-3.3,7.1-7.4,14.7-7.4
		c7.7,0,11.5,4.4,14.3,7.6c2.6,3,4.1,4.5,7.5,4.5c3.4,0,5-1.6,7.7-4.7c2.9-3.3,6.6-7.4,13.8-7.4c7.2,0,11,4,14,7.3
		c2.9,3.1,4.7,4.8,8.3,4.8c3.4,0,4.8-1.5,7.3-4.5c2.6-3.2,6.1-7.5,13.6-7.5c7.3,0,11.3,4.1,14.5,7.3c3,3,4.8,4.8,8.3,4.8
		c3.5,0,5.4-1.7,8.5-4.8c3.3-3.3,7.5-7.3,14.9-7.3c7.8,0,11.3,4.5,13.8,7.9c2.2,2.9,3.4,4.2,6.3,4.2c3.2,0,5-1.7,7.8-4.7
		c3.1-3.3,6.9-7.4,14-7.4c6.8,0,10.8,4.3,14.1,7.8c3.6,3.8,5.2,5.2,8.2,4.4c3.8-1,5.8-3,8.1-5.4c3-3.1,6.7-6.9,14.3-6.9
		c7.5,0,11.1,4.4,13.8,7.6c2.5,3,3.9,4.5,7,4.5c3.2,0,4.7-1.5,7.4-4.5c3.1-3.4,7-7.6,14.8-7.6c8,0,11.9,4.5,14.8,7.8
		c2.6,2.9,4,4.3,6.9,4.3c3.1,0,4.9-1.7,7.7-4.6c3.3-3.4,7.4-7.5,15-7.5c7.7,0,11.5,4.4,14.3,7.6c2.6,3,3.9,4.5,7.1,4.5
		c3.3,0,5.1-1.7,7.9-4.7c3.1-3.3,7-7.4,14.3-7.4c7.3,0,11.1,4.8,13.9,8.3c3,3.8,4,4.6,6.5,3.9c3.5-1,5.3-2.9,7.3-5.1
		c2.9-3.2,6.5-7.1,14.7-7.1c9.4,0,15.7,5.3,18.8,8.9V83.2l-0.7,0h-64.1c-4.4,0-8-3.7-8-8.3v-5.2c0-0.1,0-0.3,0-0.4V7.6z
		 M235.7,142.8h194.9c2.2,0,4,1.8,4,4c0,2.2-1.8,4-4,4H235.7c-2.2,0-4-1.8-4-4C231.7,144.6,233.5,142.8,235.7,142.8z M235.7,178.6
		c-2.2,0-4-1.8-4-4c0-2.2,1.8-4,4-4h282.5c2.2,0,4,1.8,4,4c0,2.2-1.8,4-4,4H235.7z M346.4,413.4c-1.6,0-2.9-1.8-2.9-4s1.3-4,2.9-4
		h232.6c1.6,0,2.9,1.8,2.9,4s-1.3,4-2.9,4H346.4z M515.2,457.1c0,2.2-1.6,4-3.5,4H390.5h-43.6h-0.6c-1.6,0-2.9-1.8-2.9-4
		s1.3-4,2.9-4h0.6h43.6h121.1C513.6,453.1,515.2,454.9,515.2,457.1z M346.4,385.5c-1.6,0-2.9-1.8-2.9-4c0-2.2,1.3-4,2.9-4h312
		c1.6,0,2.9,1.8,2.9,4c0,2.2-1.3,4-2.9,4H346.4z M658.4,357.7h-312c-1.6,0-2.9-1.8-2.9-4c0-2.2,1.3-4,2.9-4h312c1.6,0,2.9,1.8,2.9,4
		C661.4,355.9,660,357.7,658.4,357.7z M343.4,325.8c0-2.2,1.3-4,2.9-4h0.6h43.6h187.7c1.9,0,3.5,1.8,3.5,4c0,2.2-1.6,4-3.5,4H390.5
		h-43.6h-0.6C344.8,329.8,343.4,328,343.4,325.8z M657.4,329.8h-59.7c-2.2,0-4-1.8-4-4c0-2.2,1.8-4,4-4h59.7c2.2,0,4,1.8,4,4
		C661.4,328,659.6,329.8,657.4,329.8z M658.4,302h-312c-1.6,0-2.9-1.8-2.9-4c0-2.2,1.3-4,2.9-4h312c1.6,0,2.9,1.8,2.9,4
		C661.4,300.2,660,302,658.4,302z M657.4,274.1h-78.4h-9.1H346.4c-1.6,0-2.9-1.8-2.9-4s1.3-4,2.9-4h223.5h9.1h78.4c2.2,0,4,1.8,4,4
		S659.6,274.1,657.4,274.1z M343.4,241.5c0-1.8,0.8-3.2,1.8-3.2h87.6c1,0,1.8,1.4,1.8,3.2c0,1.8-0.8,3.2-1.8,3.2h-87.6
		C344.2,244.7,343.4,243.3,343.4,241.5z M498.2,246.3h-47.7c-2.2,0-4-1.8-4-4s1.8-4,4-4h47.7c2.2,0,4,1.8,4,4
		S500.4,246.3,498.2,246.3z M658.4,516.8h-312c-1.6,0-2.9-1.8-2.9-4c0-2.2,1.3-4,2.9-4h312c1.6,0,2.9,1.8,2.9,4
		C661.4,515,660,516.8,658.4,516.8z M657.4,488.9H434.7h-59.8h-28.5c-1.6,0-2.9-1.8-2.9-4c0-2.2,1.3-4,2.9-4h28.5h59.8h222.7
		c2.2,0,4,1.8,4,4C661.4,487.2,659.6,488.9,657.4,488.9z M665.3,457.1c0,2.2-1.8,4-4,4H522.1c-2.2,0-4-1.8-4-4s1.8-4,4-4h139.2
		C663.5,453.1,665.3,454.9,665.3,457.1z M657.4,238.3c2.2,0,4,1.8,4,4s-1.8,4-4,4H518.1c-2.2,0-4-1.8-4-4s1.8-4,4-4H657.4z"/>
	<path class="st1" d="M709.9,73.2h-0.1c0.1,0.4,0.1,0.8,0.1,1.2V73.2z"/>
	<path class="st1" d="M189,11.6c0-2.2,1.8-4,4-4c0,0,0,0,0,0h436.2v61.7c0,0.1,0,0.3,0,0.4V7.9c0-3.4,1.9-6.3,4.9-7.6
		c1-0.4,2-0.5,3-0.6v-0.1H193c0,0,0,0,0,0c-6.6,0-11.9,5.3-12,11.9L180.2,194h8L189,11.6z"/>
	<path class="st1" d="M706,82v1.4l-4-0.3v625.2c-3.1-3.5-9.4-8.9-18.8-8.9c-8.2,0-11.8,3.9-14.7,7.1c-2,2.2-3.8,4.2-7.3,5.1
		c-2.5,0.7-3.5-0.1-6.5-3.9c-2.8-3.5-6.6-8.3-13.9-8.3c-7.3,0-11.2,4.1-14.3,7.4c-2.8,3-4.6,4.7-7.9,4.7c-3.2,0-4.6-1.4-7.1-4.5
		c-2.8-3.2-6.5-7.6-14.3-7.6c-7.6,0-11.7,4.2-15,7.5c-2.9,2.9-4.7,4.6-7.7,4.6c-2.9,0-4.3-1.4-6.9-4.3c-2.9-3.3-6.8-7.8-14.8-7.8
		c-7.9,0-11.7,4.2-14.8,7.6c-2.7,2.9-4.3,4.5-7.4,4.5c-3.2,0-4.5-1.5-7-4.5c-2.7-3.2-6.3-7.6-13.8-7.6c-7.7,0-11.4,3.8-14.3,6.9
		c-2.3,2.3-4.2,4.3-8.1,5.4c-3.1,0.8-4.7-0.6-8.2-4.4c-3.2-3.5-7.3-7.8-14.1-7.8c-7.1,0-11,4.1-14,7.4c-2.8,3-4.6,4.7-7.8,4.7
		c-2.9,0-4-1.3-6.3-4.2c-2.5-3.3-6-7.9-13.8-7.9c-7.4,0-11.6,4.1-14.9,7.3c-3.1,3-5,4.8-8.5,4.8c-3.5,0-5.3-1.7-8.3-4.8
		c-3.2-3.3-7.2-7.3-14.5-7.3c-7.5,0-11,4.4-13.6,7.5c-2.5,3.1-3.9,4.5-7.3,4.5c-3.6,0-5.4-1.7-8.3-4.8c-3-3.2-6.8-7.3-14-7.3
		c-7.3,0-10.9,4.1-13.8,7.4c-2.7,3.1-4.3,4.7-7.7,4.7c-3.3,0-4.9-1.6-7.5-4.5c-2.8-3.2-6.7-7.6-14.3-7.6c-7.6,0-11.5,4.1-14.7,7.4
		c-2.9,3-4.7,4.7-8.1,4.7c-3.4,0-4.8-1.6-7.2-4.8c-2.3-3.1-5.5-7.3-12.1-7.3c-6,0-9.9,4-13.4,7.5c-4.1,4.1-6.1,5.7-9.1,4.8
		c-3.6-1.1-5.3-3-7.3-5.3c-2.8-3.1-6.4-7-14.5-7c-8,0-13.1,3.8-16,7.1v-70h-8v75.1c0,5.4,2.6,7,4.1,7.5c1.5,0.5,4.6,0.6,7.6-3.9
		l0.3-0.6c0.1-0.3,3.3-7.2,12-7.2c4.6,0,6.1,1.7,8.6,4.4c2.3,2.6,5.2,5.7,10.8,7.5c1.4,0.4,2.7,0.6,4,0.6c5.8,0,9.9-4.2,13.1-7.4
		c2.8-2.8,5.1-5.2,7.8-5.2c2.4,0,3.4,1.1,5.7,4.2c2.5,3.3,6,7.9,13.6,7.9c7,0,10.8-4,13.8-7.1c2.8-2.9,4.8-5,8.9-5
		c4.1,0,5.8,1.9,8.3,4.9c2.8,3.2,6.4,7.2,13.5,7.2c7.2,0,10.8-4.1,13.6-7.4c2.7-3.1,4.3-4.7,7.9-4.7c3.6,0,5.4,1.7,8.2,4.8
		c3.1,3.3,6.9,7.3,14.1,7.3c7.4,0,10.9-4.3,13.5-7.5c2.5-3,3.9-4.6,7.5-4.6c3.8,0,5.7,1.8,8.8,4.9c3.1,3.2,7,7.2,14,7.2
		c6.9,0,10.9-3.9,14.1-7c2.9-2.8,5.2-5.1,9.4-5.1c3.9,0,5.3,1.8,7.5,4.7c2.4,3.1,5.6,7.4,12.6,7.4c6.8,0,10.6-4,13.6-7.2
		c2.9-3.1,4.7-4.9,8.2-4.9c3.2,0,5.2,2,8.2,5.3c3.4,3.7,8.2,8.8,16.1,6.7c6-1.6,9.2-4.9,11.7-7.5c2.7-2.8,4.3-4.4,8.6-4.4
		c3.6,0,5.1,1.6,7.7,4.7c2.6,3.1,6.1,7.4,13.1,7.4c6.8,0,10.4-3.9,13.3-7.1c2.7-2.9,4.6-5,9-5c4.4,0,6.2,2.1,8.8,5.1
		c2.8,3.1,6.2,7,12.9,7c6.6,0,10.4-3.8,13.4-6.9c2.8-2.9,5.1-5.2,9.4-5.2c4.1,0,5.7,1.9,8.2,4.9c2.8,3.2,6.2,7.2,13.2,7.2
		c6.9,0,10.7-4,13.7-7.2c3-3.1,4.8-4.9,8.5-4.9c3.3,0,4.9,1.9,7.6,5.3c3,3.7,7,8.9,14.9,6.7c5.7-1.6,8.7-4.8,11.1-7.4
		c2.6-2.8,4.1-4.5,8.8-4.5c9.2,0,14.2,7.8,14.4,8.1l0.4,0.6c3.5,4,6.5,3.6,8,3c1.5-0.6,4-2.3,4-7.5V75.3
		C709.8,78.2,708.3,80.7,706,82z"/>
	<path class="st2" d="M701.7,74.4l-0.5-0.4L637.1,7.5l0.1,67.6h64.1c0.1,0,0.2,0,0.4,0c0.1,0,0.2,0,0.3,0h0.1l-0.1-0.1L701.7,74.4z"
		/>
	<path class="st1" d="M709.9,74.5c0-0.4-0.1-0.8-0.1-1.2c-0.4-2-1.5-3.8-2.9-4.8l-64-66.3c-1.5-1.6-3.6-2.4-5.7-2.4
		c-1,0-2,0.1-3,0.6c-3,1.3-4.9,4.3-4.9,7.6v61.8v5.2c0,4.5,3.6,8.3,8,8.3h64.1l0.7,0l4,0.3V82c2.3-1.4,3.8-3.9,3.9-6.8
		c0-0.1,0.1-0.3,0.1-0.4C710,74.7,710,74.6,709.9,74.5z M702,75.2c-0.1,0-0.2,0-0.3,0c-0.1,0-0.2,0-0.4,0h-64.1l-0.1-67.6l64.1,66.4
		l0.5,0.4l0.2,0.7L702,75.2L702,75.2z"/>
	<path class="st2" d="M522.1,174.7c0-2.2-1.8-4-4-4H235.7c-2.2,0-4,1.8-4,4c0,2.2,1.8,4,4,4h282.5
		C520.3,178.6,522.1,176.8,522.1,174.7z"/>
	<path class="st1" d="M565.9,270.1c0-2.2,1.8-4,4-4H346.4c-1.6,0-2.9,1.8-2.9,4s1.3,4,2.9,4h223.5
		C567.7,274.1,565.9,272.3,565.9,270.1z"/>
	<path class="st1" d="M370.9,485c0-2.2,1.8-4,4-4h-28.5c-1.6,0-2.9,1.8-2.9,4c0,2.2,1.3,4,2.9,4h28.5
		C372.7,488.9,370.9,487.2,370.9,485z"/>
	<path class="st1" d="M657.4,481H434.7h-59.8c-2.2,0-4,1.8-4,4c0,2.2,1.8,4,4,4h59.8h222.7c2.2,0,4-1.8,4-4
		C661.4,482.8,659.6,481,657.4,481z"/>
	<path class="st1" d="M346.9,321.9h-0.6c-1.6,0-2.9,1.8-2.9,4C343.4,323.6,345,321.9,346.9,321.9z"/>
	<path class="st1" d="M346.4,329.8h0.6c-1.9,0-3.5-1.8-3.5-4C343.4,328,344.8,329.8,346.4,329.8z"/>
	<path class="st1" d="M657.4,321.9h-59.7c-2.2,0-4,1.8-4,4c0,2.2,1.8,4,4,4h59.7c2.2,0,4-1.8,4-4
		C661.4,323.6,659.6,321.9,657.4,321.9z"/>
	<path class="st1" d="M346.9,329.8h43.6h187.7c1.9,0,3.5-1.8,3.5-4c0-2.2-1.6-4-3.5-4H390.5h-43.6c-1.9,0-3.5,1.8-3.5,4
		C343.4,328,345,329.8,346.9,329.8z"/>
	<path class="st1" d="M343.4,457.1c0,2.2,1.3,4,2.9,4h0.6C345,461.1,343.4,459.3,343.4,457.1z"/>
	<path class="st1" d="M346.9,453.1h-0.6c-1.6,0-2.9,1.8-2.9,4C343.4,454.9,345,453.1,346.9,453.1z"/>
	<path class="st1" d="M522.1,453.1c-2.2,0-4,1.8-4,4s1.8,4,4,4h139.2c2.2,0,4-1.8,4-4s-1.8-4-4-4H522.1z"/>
	<path class="st1" d="M390.5,453.1h-43.6c-1.9,0-3.5,1.8-3.5,4s1.6,4,3.5,4h43.6h121.1c1.9,0,3.5-1.8,3.5-4s-1.6-4-3.5-4H390.5z"/>
	<path class="st1" d="M657.4,266.2h-78.4h-9.1c-2.2,0-4,1.8-4,4s1.8,4,4,4h9.1h78.4c2.2,0,4-1.8,4-4S659.6,266.2,657.4,266.2z"/>
	<path class="st1" d="M581.9,409.4c0-2.2-1.3-4-2.9-4H346.4c-1.6,0-2.9,1.8-2.9,4s1.3,4,2.9,4h232.6
		C580.6,413.4,581.9,411.6,581.9,409.4z"/>
	<path class="st1" d="M498.2,238.3h-47.7c-2.2,0-4,1.8-4,4s1.8,4,4,4h47.7c2.2,0,4-1.8,4-4S500.4,238.3,498.2,238.3z"/>
	<path class="st1" d="M514.2,242.3c0,2.2,1.8,4,4,4h139.2c2.2,0,4-1.8,4-4s-1.8-4-4-4H518.1C515.9,238.3,514.2,240.1,514.2,242.3z"
		/>
	<path class="st1" d="M345.2,244.7h87.6c1,0,1.8-1.4,1.8-3.2c0-1.8-0.8-3.2-1.8-3.2h-87.6c-1,0-1.8,1.4-1.8,3.2
		C343.4,243.3,344.2,244.7,345.2,244.7z"/>
	<path class="st1" d="M661.4,381.5c0-2.2-1.3-4-2.9-4h-312c-1.6,0-2.9,1.8-2.9,4c0,2.2,1.3,4,2.9,4h312
		C660,385.5,661.4,383.7,661.4,381.5z"/>
	<path class="st1" d="M658.4,349.7h-312c-1.6,0-2.9,1.8-2.9,4c0,2.2,1.3,4,2.9,4h312c1.6,0,2.9-1.8,2.9-4
		C661.4,351.5,660,349.7,658.4,349.7z"/>
	<path class="st1" d="M658.4,508.8h-312c-1.6,0-2.9,1.8-2.9,4c0,2.2,1.3,4,2.9,4h312c1.6,0,2.9-1.8,2.9-4
		C661.4,510.6,660,508.8,658.4,508.8z"/>
	<path class="st1" d="M658.4,294h-312c-1.6,0-2.9,1.8-2.9,4c0,2.2,1.3,4,2.9,4h312c1.6,0,2.9-1.8,2.9-4
		C661.4,295.8,660,294,658.4,294z"/>
	<path class="st1" d="M235.7,150.8h194.9c2.2,0,4-1.8,4-4c0-2.2-1.8-4-4-4H235.7c-2.2,0-4,1.8-4,4
		C231.7,149,233.5,150.8,235.7,150.8z"/>
	<g>
		<polygon class="st3" points="239.4,236 217.8,214.4 188.2,214.4 180.2,214.4 109.8,214.4 88.2,236 12.6,236 12.6,279.2 180,279.2 
			187.9,279.2 315,279.2 315,236 		"/>
		<path class="st3" d="M179.9,300.8H34.2V560c0,23.9,19.3,43.2,43.2,43.2h102.3h8h62.5c23.9,0,43.2-19.3,43.2-43.2V300.8H187.9
			H179.9z"/>
	</g>
</g>
</svg>
