<?xml version="1.0" encoding="utf-8"?>
<!-- Generator: Adobe Illustrator 28.2.0, SVG Export Plug-In . SVG Version: 6.00 Build 0)  -->
<svg version="1.1" id="svg2" xmlns:svg="http://www.w3.org/2000/svg"
	 xmlns="http://www.w3.org/2000/svg" xmlns:xlink="http://www.w3.org/1999/xlink" x="0px" y="0px" viewBox="0 0 320 320"
	 style="enable-background:new 0 0 320 320;" xml:space="preserve">
<style type="text/css">
	.st0{fill:#A2A9B1;}
	.st1{fill:#3366CC;}
	.st2{fill:#FFFFFF;}
</style>
<g>
	<path class="st0" d="M64,109.4v25.9c0,0.2-0.2,0.4-0.4,0.4h-7.5c-0.2,0-0.4-0.2-0.4-0.4v-0.4c0-0.2-0.2-0.3-0.3-0.2
		c-2.1,1.2-4.6,1.8-7,1.8c-7.8,0-14.2-6.3-14.2-14s6.4-14,14.2-14c2.5,0,4.9,0.6,7,1.8c0.1,0.1,0.3,0,0.3-0.2v-0.8
		c0-0.2,0.2-0.4,0.4-0.4h7.5C63.8,109,64,109.2,64,109.4z M55.6,122.6c0-3.5-2.5-6.4-6.1-6.4c-3.6,0-6.5,2.9-6.5,6.4
		s2.9,6.4,6.5,6.4C53.1,129,55.6,126.1,55.6,122.6z"/>
</g>
<g>
	<path class="st1" d="M181.8,122.7h-10.7c-0.3,0-0.5-0.2-0.6-0.4l-2.3-6.8c-0.1-0.2-0.3-0.4-0.5-0.4h-13.2c-0.2,0-0.4,0.1-0.5,0.4
		l-2.3,6.9c-0.1,0.2-0.3,0.4-0.5,0.4h-10.8c-0.4,0-0.6-0.4-0.5-0.7l15.9-42.2c0.1-0.3,0.4-0.4,0.6-0.4h9.4c0.2,0,0.5,0.2,0.6,0.4
		l15.9,42.3C182.4,122.4,182.2,122.7,181.8,122.7z M164.9,105.5l-3.3-10.1c-0.2-0.5-0.9-0.5-1,0l-3.3,10.1c-0.1,0.3,0.1,0.7,0.5,0.7
		h6.7C164.8,106.2,165.1,105.8,164.9,105.5z"/>
</g>
<path class="st0" d="M9.6,266.6V58.5H103c0-2.7,0-5.3,0-8H1.6v224.1H103c0-2.7,0-5.3,0-8H9.6z"/>
<g>
	<path class="st1" d="M317,298.4H95.7V16.6H317V298.4z M103.7,290.4H309V24.6H103.7V290.4z"/>
</g>
<path class="st0" d="M74.2,96.3v8h21.6c0-2.7,0-5.3,0-8H74.2z"/>
<path class="st0" d="M74.2,111.9v8h21.6c0-2.7,0-5.3,0-8H74.2z"/>
<path class="st0" d="M74.2,127.6v8h21.6c0-2.7,0-5.3,0-8H74.2z"/>
<path class="st0" d="M74.2,143.2v8h21.6c0-2.7,0-5.3,0-8H74.2z"/>
<path class="st0" d="M35.6,167.3v8h60c0-2.7,0-5.3,0-8H35.6z"/>
<path class="st0" d="M35.6,182.9v8h60c0-2.7,0-5.3,0-8H35.6z"/>
<path class="st0" d="M35.6,198.6v8h60c0-2.7,0-5.3,0-8H35.6z"/>
<path class="st0" d="M35.6,214.3v8h60c0-2.7,0-5.3,0-8H35.6z"/>
<path class="st0" d="M35.6,231v8h60c0-2.7,0-5.3,0-8H35.6z"/>
<path class="st0" d="M35.6,246.7v8h60c0-2.7,0-5.3,0-8H35.6z"/>
<path class="st0" d="M198.8,72.6v8h69.8c0-2.7,0-5.3,0-8H198.8z"/>
<path class="st0" d="M198.8,88.2v8h69.8c0-2.7,0-5.3,0-8H198.8z"/>
<path class="st0" d="M198.8,103.9v8h69.8c0-2.7,0-5.3,0-8H198.8z"/>
<path class="st0" d="M198.8,119.6v8h69.8c0-2.7,0-5.3,0-8H198.8z"/>
<path class="st0" d="M140,143.6v8h128.6c0-2.7,0-5.3,0-8H140z"/>
<path class="st0" d="M140,159.3v8h128.6c0-2.7,0-5.3,0-8H140z"/>
<path class="st0" d="M140,174.9v8h128.6c0-2.7,0-5.3,0-8H140z"/>
<path class="st0" d="M140,190.6v8h128.6c0-2.7,0-5.3,0-8H140z"/>
<path class="st0" d="M140,207.4v8h128.6c0-2.7,0-5.3,0-8H140z"/>
<path class="st0" d="M140,223v8h128.6c0-2.7,0-5.3,0-8H140z"/>
<path class="st1" d="M87.6,248.9L87.6,248.9c-23.8,0-43-19.3-43-43v0c0-23.8,19.3-43,43-43h0c23.8,0,43,19.3,43,43v0
	C130.7,229.7,111.4,248.9,87.6,248.9z"/>
<path class="st2" d="M45,198.5c11.1,0,34.2,0.1,45.4,0.1c0.3,0,0.5,0,0.8,0c-5-5-10-10-15-15c2.1-2.1,3.9-3.9,5.7-5.7
	c8.2,8.2,16.4,16.4,24.8,24.8c-8.2,8.2-16.5,16.6-24.8,24.9c-0.2-0.2-0.4-0.3-0.5-0.5c-1.5-1.5-3.1-3.1-4.6-4.6
	c-0.4-0.4-0.4-0.7,0-1c4.7-4.6,9.3-9.3,13.9-13.9c0.2-0.2,0.4-0.4,0.6-0.7c0-0.1-0.1-0.1-0.1-0.2c-0.3,0-0.6,0-0.9,0
	c-11.1,0-34.9,0-46,0"/>
<path class="st0" d="M44.6,205.9L44.6,205.9c0-2.5,0.2-4.9,0.6-7.3h-9.6v8h9C44.6,206.4,44.6,206.1,44.6,205.9z"/>
</svg>
