<?xml version="1.0" encoding="utf-8"?>
<!-- Generator: Adobe Illustrator 28.2.0, SVG Export Plug-In . SVG Version: 6.00 Build 0)  -->
<svg version="1.1" id="svg2" xmlns:svg="http://www.w3.org/2000/svg"
	 xmlns="http://www.w3.org/2000/svg" xmlns:xlink="http://www.w3.org/1999/xlink" x="0px" y="0px" viewBox="0 0 320 320"
	 style="enable-background:new 0 0 320 320;" xml:space="preserve">
<style type="text/css">
	.st0{opacity:0.7;fill:#A2A9B1;enable-background:new    ;}
	.st1{fill:#FFFFFF;}
	.st2{fill:#3366CC;}
</style>
<g>
	<rect x="110" y="70" class="st0" width="90" height="10"/>
	<rect x="110" y="40" class="st0" width="60" height="10"/>
	<rect x="110" y="90" class="st0" width="90" height="10"/>
	<rect x="110" y="110" class="st0" width="70" height="10"/>
	<polygon class="st0" points="110,140 130,140 140,140 190,140 200,140 230,140 240,140 250,140 260,140 260,130 250,130 220,130 
		210,130 110,130 	"/>
	<polygon class="st0" points="180,160 180,150 160,150 160,160 170,160 	"/>
	<polygon class="st0" points="210,160 210,150 200,150 190,150 190,160 200,160 	"/>
	<rect x="250" y="150" class="st0" width="20" height="10"/>
	<rect x="230" y="150" class="st0" width="10" height="10"/>
	<polygon class="st0" points="110,160 130,160 140,160 140,150 130,150 110,150 	"/>
	<polygon class="st0" points="110,180 140,180 140,170 130,170 110,170 	"/>
	<rect x="190" y="170" class="st0" width="10" height="10"/>
	<polygon class="st0" points="230,170 220,170 210,170 210,180 230,180 	"/>
	<rect x="150" y="170" class="st0" width="10" height="10"/>
	<rect x="170" y="170" class="st0" width="10" height="10"/>
	<rect x="250" y="170" class="st0" width="10" height="10"/>
	<rect x="130" y="190" class="st0" width="10" height="10"/>
	<rect x="170" y="190" class="st0" width="10" height="10"/>
	<polygon class="st0" points="230,190 230,200 250,200 250,190 240,190 	"/>
	<rect x="190" y="190" class="st0" width="10" height="10"/>
	<rect x="150" y="190" class="st0" width="10" height="10"/>
	<polygon class="st0" points="110,220 120,220 130,220 130,210 110,210 	"/>
	<rect x="260" y="210" class="st0" width="10" height="10"/>
	<rect x="150" y="210" class="st0" width="10" height="10"/>
	<rect x="240" y="210" class="st0" width="10" height="10"/>
	<polygon class="st0" points="210,210 200,210 180,210 180,220 190,220 210,220 	"/>
	<rect x="120" y="230" class="st0" width="10" height="10"/>
	<rect x="240" y="230" class="st0" width="10" height="10"/>
	<rect x="170" y="230" class="st0" width="10" height="10"/>
	<rect x="200" y="230" class="st0" width="10" height="10"/>
	<rect x="140" y="230" class="st0" width="10" height="10"/>
	<rect x="200" y="250" class="st0" width="10" height="10"/>
	<rect x="170" y="250" class="st0" width="10" height="10"/>
	<rect x="240" y="250" class="st0" width="10" height="10"/>
	<rect x="290" y="180" class="st0" width="10" height="10"/>
	<rect x="290" y="280" class="st0" width="10" height="10"/>
	<rect x="290" y="200" class="st0" width="10" height="10"/>
	<rect x="290" y="150" class="st0" width="10" height="20"/>
	<polygon class="st0" points="230,10 220,10 80,10 70,10 70,20 70,140 70,190 80,190 80,20 220,20 220,90 230,90 290,90 290,130 
		290,140 300,140 300,90 300,80 	"/>
	<rect x="70" y="230" class="st0" width="10" height="10"/>
	<rect x="80" y="300" class="st0" width="10" height="10"/>
	<rect x="70" y="270" class="st0" width="10" height="10"/>
	<rect x="70" y="250" class="st0" width="10" height="10"/>
	<rect x="270" y="300" class="st0" width="10" height="10"/>
	<rect x="210" y="300" class="st0" width="10" height="10"/>
	<rect x="120" y="300" class="st0" width="10" height="10"/>
</g>
<path id="path1995" class="st1" d="M80,190c0,5.5-4.5,10-10,10s-10-4.5-10-10s4.5-10,10-10S80,184.5,80,190z"/>
<path id="rect1997" class="st1" d="M70,120c-8.3,0-15,4.5-15,10.1l4.4,35.5c0.8,4.6,1.6,7.2,4.4,8.4c1.9,0.6,3.9,0.9,6.1,0.9
	s4.2-0.3,6.1-0.9c2.9-1.2,3.6-3.8,4.5-8.4l4.4-35.5C85,124.5,78.3,120,70,120z"/>
<circle class="st2" cx="76.5" cy="159.9" r="60"/>
<path class="st2" d="M96.3,161.5c0-15-12.2-27.2-27.2-27.2c-15,0-27.2,12.2-27.2,27.2c0,15,12.2,27.2,27.2,27.2
	C84.1,188.7,96.3,176.5,96.3,161.5z"/>
<path class="st1" d="M96.7,157.9H80.5v-16.2c0-3-2.4-5.4-5.4-5.4s-5.4,2.4-5.4,5.4v21.7c0,3,2.4,5.4,5.4,5.4h21.6
	c3,0,5.4-2.4,5.4-5.4C102.1,160.3,99.7,157.9,96.7,157.9z"/>
</svg>
