<?xml version="1.0" encoding="utf-8"?>
<!-- Generator: Adobe Illustrator 28.2.0, SVG Export Plug-In . SVG Version: 6.00 Build 0)  -->
<svg version="1.1" id="svg2" xmlns:svg="http://www.w3.org/2000/svg"
	 xmlns="http://www.w3.org/2000/svg" xmlns:xlink="http://www.w3.org/1999/xlink" x="0px" y="0px" viewBox="0 0 320 320"
	 style="enable-background:new 0 0 320 320;" xml:space="preserve">
<style type="text/css">
	.st0{opacity:0.7;enable-background:new    ;}
	.st1{fill:#A2A9B1;}
	.st2{fill:#3366CC;}
	.st3{fill:#FFFFFF;}
</style>
<g>
	<g class="st0">
		<path class="st1" d="M160,259.3c-47.4,0-85.9-38.5-85.9-85.9v-79C74.1,47,112.6,8.4,160,8.4c47.4,0,85.9,38.5,85.9,85.9v79
			C245.9,220.7,207.4,259.3,160,259.3z M160,22.3c-39.7,0-72,32.3-72,72v79c0,39.7,32.3,72,72,72c39.7,0,72-32.3,72-72v-79
			C232,54.6,199.7,22.3,160,22.3z"/>
	</g>
	<path class="st2" d="M61.3,114.1h197.5c10.9,0,19.7,8.8,19.7,19.7v158c0,10.9-8.9,19.7-19.7,19.7H61.3c-10.9,0-19.7-8.9-19.7-19.7
		v-158C41.5,123,50.4,114.1,61.3,114.1z"/>
	<g>
		<path class="st3" d="M173.3,208.8l29.9,29.9v-25.6h25.6v72.6h-72.6v-25.6h25.6L152,230.2"/>
		<path class="st3" d="M160,238.1l-43.2-43.2l0,25.6H91.1l0-72.6h72.6v25.6h-25.6l40.1,40.1"/>
	</g>
</g>
</svg>
