<?xml version="1.0" encoding="utf-8"?>
<!-- Generator: Adobe Illustrator 28.2.0, SVG Export Plug-In . SVG Version: 6.00 Build 0)  -->
<svg version="1.1" id="svg2" xmlns:svg="http://www.w3.org/2000/svg"
	 xmlns="http://www.w3.org/2000/svg" xmlns:xlink="http://www.w3.org/1999/xlink" x="0px" y="0px" viewBox="0 0 320 320"
	 style="enable-background:new 0 0 320 320;" xml:space="preserve">
<style type="text/css">
	.st0{fill:#A2A9B1;}
	.st1{fill:#3366CC;}
</style>
<g>
	<path class="st0" d="M160,10.9c-48.8,0-88.5,39.7-88.5,88.5v28l1,0c0.7,0,1.5,0,2.2,0c1.9,0,3.9-0.1,5.8,0l1,0V99.4
		c0-43.3,35.2-78.5,78.5-78.5c43.3,0,78.5,35.2,78.5,78.5v27.9l0.9,0.1c1.4,0.2,2.8,0.1,4.2,0c1.3-0.1,2.6-0.2,3.8,0l1.1,0.2V99.4
		C248.5,50.6,208.8,10.9,160,10.9z"/>
	<g>
		<path class="st1" d="M48.4,120.7v167h223.3v-167H48.4z M58.4,277.7v-147h203.3v147H58.4z"/>
		<path class="st1" d="M198.5,167.5c-0.1,0-0.3,0-0.4-0.1c-3.6-0.5-7.1-1.2-11-2.3c-3.7-1.1-7.5-2.4-11.3-4
			c-3.6-1.5-7.2-3.4-10.7-5.4L164,155c-1-0.6-2-1.2-3-1.7c-0.5-0.3-1.3-0.3-1.8,0c-0.5,0.3-1,0.6-1.5,0.8c-0.3,0.2-0.6,0.4-0.9,0.5
			c-0.8,0.4-1.5,0.8-2.2,1.2c-1.9,1.1-3.9,2.2-5.8,3.2c-3.2,1.7-6.7,3.1-10.6,4.5c-3.7,1.3-7,2.2-10.2,2.9c-1.5,0.3-3,0.6-4.5,0.9
			l-2.9,0.5v38.4l0,2.1c0,1.7,0,3.4,0,5.1l0,0.6c0,1.1,0,2.1,0.2,3.2c0.6,3.9,2.1,7.7,4.5,11.7c2,3.4,4.6,6.6,7.7,9.9
			c3.4,3.5,7.2,6.7,11.2,9.4c2.5,1.7,5.3,3.5,8.8,5.7c1.4,0.8,2.8,1.6,4.2,2.3c0.7,0.4,1.4,0.7,2.1,1.1c0.3,0.2,0.6,0.3,0.9,0.3
			c0.3,0,0.6-0.1,0.9-0.2c0.4-0.2,0.8-0.4,1.3-0.7c0.4-0.2,0.7-0.4,1.1-0.6c4.4-2.4,8.3-4.8,11.8-7.2c5.3-3.7,9.7-7.4,13.3-11.4
			c4.6-5,7.8-10,9.6-15.2c0.7-1.9,1.5-4.5,1.5-7.3c0-2.5,0-5.1,0-7.6l0-39.9L198.5,167.5z M149,240.4c-5-3.6-9-7.2-12.2-11
			c-3-3.5-5-7-6.3-10.5c-0.6-1.7-0.9-3.5-0.9-5.5c0-9.6,0-19.2,0-28.9l0-9c0.2,0,0.4-0.1,0.5-0.1c0.9-0.2,1.9-0.4,2.9-0.7
			c2.5-0.7,5.4-1.5,8.1-2.5c3.6-1.2,7.3-2.7,10.9-4.5c2.1-1.1,4.2-2.2,6.2-3.3l1.6-0.9c0.8,0.4,1.6,0.9,2.4,1.3
			c2.4,1.3,4.8,2.6,7.3,3.8c4.4,2.1,9,3.9,13.7,5.2c1.5,0.4,3,0.8,4.5,1.2c0.8,0.2,1.6,0.4,2.4,0.6l0,10.3c0,9.3,0,18.7,0,28
			c0,2.5-0.6,5-2,7.9c-2,4.3-5.1,8.3-9.7,12.6c-3.6,3.4-7.8,6.5-12.9,9.8c-1.5,1-3.2,1.9-4.8,2.8l-1,0.5
			C156,245.1,152.4,242.8,149,240.4z"/>
		<path class="st1" d="M181.6,194.2l0.7-0.5v-1.1l-0.3-0.3c-1.1-1.1-2.1-2.1-3.2-3.2c-0.6-0.6-1.2-1.2-1.8-1.9l-0.7-0.7l-23.1,21.9
			c-0.9-1-1.8-1.9-2.7-2.9c-2-2.2-4.1-4.3-6.1-6.4l-0.7-0.7l-0.7,0.7c-1,0.9-1.9,1.8-2.8,2.7c-0.7,0.7-1.4,1.3-2.1,1.9l-0.7,0.7
			l0.7,0.7c4.1,4.3,8.3,8.7,12.6,13.2l2.8,3l0.7-1c0.1-0.2,0.3-0.5,0.6-0.7l26.2-24.8C181.2,194.5,181.4,194.3,181.6,194.2z"/>
	</g>
</g>
</svg>
