<?xml version="1.0" encoding="utf-8"?>
<!-- Generator: Adobe Illustrator 28.2.0, SVG Export Plug-In . SVG Version: 6.00 Build 0)  -->
<svg version="1.1" id="svg2" xmlns:svg="http://www.w3.org/2000/svg"
	 xmlns="http://www.w3.org/2000/svg" xmlns:xlink="http://www.w3.org/1999/xlink" x="0px" y="0px" viewBox="0 0 320 320"
	 style="enable-background:new 0 0 320 320;" xml:space="preserve">
<style type="text/css">
	.st0{opacity:0.29;fill:none;}
	.st1{opacity:0.29;fill:#A2A9B1;}
	.st2{fill:#A2A9B1;}
	.st3{opacity:0.29;}
	.st4{fill:#3366CC;}
</style>
<path class="st0" d="M22.6,24.6v265.8h205.3v-93.5c-13.5,8.5-27.9,12.2-41.9,12.1c0,2.1,0,4.3,0,6.4H57.4v-8h113.8
	c-8.1-1.7-15.9-4.7-23-8.8H57.4v-8H137c-2.8-2.4-5.3-4.9-7.7-7.7H57.4v-8h65.8c-1.6-2.5-3.1-5-4.4-7.6H57.4v-8h57.9
	c-0.9-2.5-1.8-5.1-2.4-7.7H57.4v-8h53.9c-0.4-2.9-0.7-5.9-0.7-8.9H57.4v-8h53.4c0.2-2.6,0.6-5.2,1-7.7H57.4v-8h56.3
	c0.9-3,2-6,3.3-8.9H57.4V97v-2.9V78.5h76.1c3.5-3.4,7.1-6.3,10.9-8.9h-87v-8H160c22.6-8.5,47.9-5.6,68,7.4V24.6H22.6z M186,223
	c0,2.7,0,5.3,0,8H57.4v-8H186z M186,53.9H57.4v-8H186C186,48.6,186,51.2,186,53.9z"/>
<path class="st1" d="M57.4,159.3v8h61.4c-1.3-2.6-2.5-5.3-3.5-8H57.4z"/>
<path class="st1" d="M57.4,111v8h54.4c0.5-2.7,1.1-5.4,1.9-8H57.4z"/>
<path class="st1" d="M133.4,78.5C133.4,78.5,133.5,78.5,133.4,78.5l-76,0v15.7h63.7C124.5,88.5,128.6,83.2,133.4,78.5z"/>
<path class="st1" d="M57.4,97v5.1H117c0.8-1.7,1.6-3.5,2.5-5.1H57.4z"/>
<path class="st1" d="M121.1,94.2H57.4V97h62.1C120,96.1,120.6,95.1,121.1,94.2z"/>
<path class="st1" d="M57.4,53.9H186c0-2.7,0-5.3,0-8H57.4V53.9z"/>
<path class="st1" d="M57.4,69.6h87c5-3.3,10.2-6,15.6-8H57.4V69.6z"/>
<path class="st1" d="M123.2,174.9H57.4v8h71.9c-0.7-0.8-1.3-1.6-2-2.4C125.8,178.7,124.5,176.8,123.2,174.9z"/>
<path class="st1" d="M57.4,190.6v8h90.9c-4-2.3-7.8-5-11.3-8H57.4z"/>
<path class="st1" d="M57.4,215.4H186c0-2.2,0-4.3,0-6.4c-5,0-9.9-0.6-14.8-1.6H57.4V215.4z"/>
<path class="st1" d="M57.4,231H186c0-2.7,0-5.3,0-8H57.4V231z"/>
<path class="st2" d="M227.9,196.9v93.5H22.6V24.6h205.3V69c2.6,1.7,5.2,3.5,7.6,5.6c0.1,0.1,0.3,0.2,0.4,0.4V16.6H14.6v281.8h221.3
	v-99c-1.6-1.6-3.1-3.1-4.7-4.7C230.2,195.4,229.1,196.2,227.9,196.9z"/>
<g class="st3">
	<path class="st2" d="M172.8,198.6c4.5,0.9,9.1,1.4,13.8,1.4c9.2,0,17.9-1.9,25.8-5.2h-51.7C164.6,196.4,168.6,197.7,172.8,198.6z"
		/>
	<path class="st2" d="M215.5,158.6h-90.9c0.1,0.2,0.2,0.5,0.3,0.7c1.2,2.8,2.6,5.4,4.1,8c0.7,1.2,1.5,2.4,2.3,3.5h84.3
		C215.5,166.7,215.5,162.7,215.5,158.6z"/>
	<path class="st2" d="M141.6,182.6c0.1,0.1,0.2,0.2,0.3,0.3c3.2,2.9,6.7,5.5,10.5,7.7c2.7,1.6,5.5,3,8.4,4.2h51.7
		c1-0.4,2.1-0.9,3.1-1.4c0-3.6,0-7.2,0-10.8H141.6z"/>
	<path class="st2" d="M215.5,194.8c0-0.5,0-0.9,0-1.4c-1,0.5-2,0.9-3.1,1.4H215.5z"/>
	<path class="st2" d="M186,65.7c-7.6,0.1-15,1.5-21.8,3.9c-6,2.2-11.7,5.2-16.8,8.9c-2,1.4-3.9,3-5.7,4.6h73.8c0-3.6,0-7.2,0-10.8
		c-8.8-4.2-18.6-6.6-29-6.6C186.4,65.7,186.2,65.7,186,65.7z"/>
	<path class="st2" d="M131.8,94.2c-0.3,0.4-0.5,0.8-0.8,1.1h84.5c0-2.7,0-5.3,0-7.9h-78.2C135.3,89.6,133.5,91.8,131.8,94.2z"/>
	<path class="st2" d="M137.3,87.4h78.2c0-1.5,0-2.9,0-4.4h-73.8C140.2,84.5,138.7,85.9,137.3,87.4z"/>
</g>
<g>
	<g>
		<path class="st2" d="M70.5,146.4v-2.7c-0.1,0.3-0.4,0.7-0.8,1.2c-0.4,0.5-1,0.9-1.8,1.3c-0.7,0.4-1.6,0.6-2.6,0.6
			c-1.3,0-2.4-0.3-3.5-0.9c-1-0.6-1.9-1.5-2.5-2.6c-0.6-1.1-0.9-2.4-0.9-3.8s0.3-2.8,0.9-3.9c0.6-1.1,1.4-1.9,2.5-2.6
			c1-0.6,2.2-0.9,3.5-0.9c1,0,1.9,0.2,2.6,0.5s1.3,0.8,1.8,1.2c0.4,0.5,0.7,0.9,0.8,1.2v-2.6h2.9v13.8H70.5z M61.3,139.5
			c0,1,0.2,1.9,0.7,2.6c0.4,0.7,1,1.3,1.7,1.7s1.5,0.6,2.2,0.6c0.9,0,1.6-0.2,2.3-0.6c0.7-0.4,1.2-1,1.6-1.7
			c0.4-0.7,0.6-1.6,0.6-2.6c0-1-0.2-1.8-0.6-2.6c-0.4-0.7-0.9-1.3-1.6-1.7c-0.7-0.4-1.4-0.6-2.3-0.6c-0.8,0-1.5,0.2-2.2,0.6
			s-1.3,1-1.7,1.7C61.5,137.6,61.3,138.5,61.3,139.5z"/>
		<path class="st2" d="M77.2,146.4v-23.2h3v11.9c0.1-0.3,0.3-0.8,0.8-1.2c0.5-0.5,1.1-0.9,1.9-1.2c0.8-0.4,1.7-0.5,2.7-0.5
			c1.3,0,2.4,0.3,3.4,0.9c1,0.6,1.8,1.5,2.4,2.6c0.6,1.1,0.9,2.4,0.9,3.9s-0.3,2.8-0.9,3.8c-0.6,1.1-1.4,1.9-2.4,2.6
			c-1,0.6-2.1,0.9-3.4,0.9c-1,0-1.8-0.2-2.6-0.5c-0.8-0.4-1.4-0.8-1.9-1.3s-0.8-0.9-0.9-1.3v2.7H77.2z M89.2,139.5
			c0-1-0.2-1.9-0.6-2.6c-0.4-0.7-0.9-1.3-1.6-1.7c-0.7-0.4-1.4-0.6-2.2-0.6c-0.9,0-1.7,0.2-2.4,0.6c-0.7,0.4-1.3,1-1.7,1.7
			c-0.4,0.7-0.6,1.6-0.6,2.6c0,1,0.2,1.8,0.6,2.6c0.4,0.7,1,1.3,1.7,1.7c0.7,0.4,1.5,0.6,2.4,0.6c0.8,0,1.5-0.2,2.2-0.6
			c0.7-0.4,1.2-1,1.6-1.7S89.2,140.5,89.2,139.5z"/>
		<path class="st2" d="M101.4,144.4c0.9,0,1.6-0.1,2.1-0.4c0.5-0.3,0.9-0.5,1-0.6l1.4,2.1c-0.1,0.1-0.4,0.3-0.8,0.5
			c-0.4,0.2-1,0.4-1.6,0.6c-0.7,0.2-1.4,0.3-2.2,0.3c-1.3,0-2.4-0.3-3.5-0.9c-1.1-0.6-2-1.4-2.6-2.5s-1-2.4-1-4c0-1.6,0.3-2.9,1-4
			c0.7-1.1,1.5-1.9,2.6-2.5c1.1-0.6,2.3-0.8,3.5-0.8c0.8,0,1.6,0.1,2.2,0.3c0.6,0.2,1.2,0.4,1.6,0.6c0.4,0.2,0.7,0.4,0.8,0.5
			l-1.4,2.1c-0.1-0.1-0.3-0.2-0.5-0.4c-0.3-0.2-0.6-0.4-1-0.5c-0.4-0.2-0.9-0.2-1.5-0.2c-0.7,0-1.4,0.2-2.1,0.6s-1.2,0.9-1.7,1.7
			c-0.4,0.7-0.7,1.6-0.7,2.6c0,1,0.2,1.9,0.7,2.6c0.4,0.7,1,1.3,1.7,1.7S100.7,144.4,101.4,144.4z"/>
		<path class="st2" d="M126.7,147c-2,0-3.7-0.5-5.3-1.4c-1.6-0.9-2.8-2.2-3.7-3.9c-0.9-1.7-1.3-3.7-1.3-5.9c0-2.3,0.4-4.3,1.3-5.9
			c0.9-1.7,2.1-3,3.7-4s3.3-1.4,5.3-1.4c1.6,0,3,0.3,4.2,0.8c1.2,0.5,2.1,1.2,2.9,1.9c0.7,0.7,1.1,1.4,1.2,1.9v-18.4h4.6v35.8H135
			v-4.2c-0.2,0.6-0.7,1.3-1.4,2c-0.8,0.7-1.7,1.4-2.9,2S128.2,147,126.7,147z M127.7,143.3c1.3,0,2.5-0.3,3.6-0.9
			c1.1-0.6,2-1.5,2.6-2.6c0.6-1.1,1-2.5,1-4s-0.3-2.8-1-4c-0.7-1.1-1.5-2-2.6-2.7c-1.1-0.6-2.3-0.9-3.6-0.9c-1.2,0-2.3,0.3-3.4,0.9
			c-1,0.6-1.9,1.5-2.5,2.6c-0.6,1.1-0.9,2.5-0.9,4c0,1.5,0.3,2.9,0.9,4c0.6,1.1,1.5,2,2.5,2.6C125.4,143,126.5,143.3,127.7,143.3z"
			/>
		<path class="st2" d="M147.3,136.7c0,1.3,0.3,2.5,0.8,3.5c0.5,1.1,1.3,1.9,2.4,2.5c1.1,0.6,2.4,0.9,3.9,0.9c1.3,0,2.4-0.2,3.4-0.6
			c0.9-0.4,1.7-0.9,2.3-1.4c0.6-0.5,1-1,1.3-1.5l2.2,2.7c-0.6,0.8-1.3,1.6-2.1,2.2s-1.8,1.1-3,1.4c-1.2,0.3-2.6,0.5-4.3,0.5
			c-2.3,0-4.3-0.5-5.9-1.5c-1.7-1-3-2.3-3.9-4.1s-1.4-3.7-1.4-6c0-2.1,0.4-4,1.3-5.6c0.8-1.7,2.1-3,3.7-4s3.6-1.5,5.9-1.5
			c2.1,0,3.9,0.4,5.5,1.3c1.6,0.9,2.8,2.1,3.6,3.7s1.3,3.5,1.3,5.7c0,0.1,0,0.4,0,0.7c0,0.4,0,0.6-0.1,0.7H147.3z M160,133.2
			c0-0.7-0.2-1.5-0.6-2.3c-0.4-0.8-1-1.6-1.9-2.2c-0.9-0.6-2-0.9-3.5-0.9c-1.5,0-2.8,0.3-3.7,0.9c-0.9,0.6-1.6,1.3-2,2.1
			c-0.4,0.8-0.7,1.6-0.8,2.4H160z"/>
		<path class="st2" d="M167.3,125.1h4.4V119c0-2.2,0.4-3.9,1.1-5.2c0.8-1.3,1.7-2.3,2.9-2.9s2.4-0.9,3.6-0.9c1.5,0,2.6,0.2,3.4,0.6
			c0.8,0.4,1.3,0.7,1.4,0.8l-1.8,3.5c-0.1-0.1-0.4-0.3-0.8-0.6c-0.5-0.3-1.1-0.4-1.8-0.4c-0.6,0-1.1,0.1-1.7,0.4s-1,0.8-1.4,1.6
			c-0.4,0.8-0.5,2-0.5,3.6v5.5h6.1v3.9h-6.1v17.5h-4.5v-17.5h-4.4V125.1z"/>
		<path class="st2" d="M203.5,146.4v-4.2c-0.1,0.4-0.5,1-1.2,1.8s-1.6,1.5-2.7,2.1c-1.2,0.6-2.5,0.9-4.1,0.9c-2,0-3.8-0.5-5.4-1.4
			c-1.6-0.9-2.9-2.2-3.8-3.9c-0.9-1.7-1.4-3.7-1.4-5.9c0-2.3,0.5-4.3,1.4-5.9c0.9-1.7,2.2-3,3.8-4s3.4-1.4,5.4-1.4
			c1.5,0,2.9,0.3,4,0.8c1.1,0.6,2,1.2,2.7,1.9c0.7,0.7,1.1,1.4,1.2,1.9v-4h4.5v21.3H203.5z M196.5,157.8c-1.7,0-3.2-0.2-4.6-0.5
			c-1.4-0.3-2.5-0.8-3.6-1.5s-1.8-1.4-2.4-2.2l3-2.8c0.3,0.5,0.8,0.9,1.3,1.4c0.6,0.5,1.3,0.9,2.3,1.3s2.2,0.5,3.8,0.5
			c1.5,0,2.8-0.3,3.9-1c1.1-0.7,1.9-1.5,2.4-2.6s0.8-2.4,0.8-3.7V146h4.4v1c0,2.4-0.5,4.3-1.5,5.9c-1,1.6-2.4,2.8-4.1,3.6
			C200.5,157.4,198.6,157.8,196.5,157.8z M189.3,135.7c0,1.5,0.3,2.9,1,4c0.7,1.1,1.6,2,2.6,2.6c1.1,0.6,2.2,0.9,3.5,0.9
			c1.3,0,2.5-0.3,3.5-0.9s1.9-1.5,2.5-2.6c0.6-1.1,0.9-2.5,0.9-4s-0.3-2.8-0.9-4c-0.6-1.1-1.4-2-2.5-2.7c-1-0.6-2.2-0.9-3.5-0.9
			c-1.2,0-2.4,0.3-3.5,0.9c-1.1,0.6-2,1.5-2.6,2.6S189.3,134.2,189.3,135.7z"/>
		<path class="st2" d="M226.2,124.4c1.4,0,2.8,0.3,4.1,0.9c1.3,0.6,2.4,1.5,3.3,2.8c0.9,1.3,1.3,2.9,1.3,5v13.3h-4.6V134
			c0-2.1-0.5-3.7-1.4-4.6s-2.2-1.4-3.8-1.4c-1,0-2,0.3-3,0.9c-1,0.6-1.7,1.4-2.4,2.4c-0.6,1-0.9,2.2-0.9,3.4v11.8h-4.6v-35.8h4.6
			v18.2c0.2-0.6,0.6-1.2,1.3-1.9s1.6-1.3,2.6-1.8C223.8,124.7,224.9,124.4,226.2,124.4z"/>
	</g>
</g>
<path class="st2" d="M120,138.1h111.3c0-1.6,0-3.2,0-4.9H120V138.1z"/>
<path class="st4" d="M244.7,182.3c28.2-34,21.8-81.3-8.7-107.3c-0.1-0.1-0.3-0.2-0.4-0.4c-2.4-2-5-3.9-7.6-5.6
	c-20.1-13-45.4-15.9-68-7.4c-5.4,2-10.6,4.7-15.6,8c-3.8,2.6-7.5,5.5-10.9,8.9c0,0,0,0,0,0c-4.8,4.7-9,10-12.3,15.7
	c-0.6,0.9-1.1,1.9-1.6,2.9c-0.9,1.7-1.7,3.4-2.5,5.1c-1.3,2.9-2.4,5.8-3.3,8.9c-0.8,2.6-1.4,5.3-1.9,8c-0.5,2.5-0.8,5.1-1,7.7
	c-0.2,2.7-0.3,5.3-0.2,8c0.1,3,0.3,5.9,0.7,8.9c0.4,2.7,0.9,5.3,1.6,8c0.7,2.6,1.5,5.2,2.4,7.7c1,2.7,2.2,5.4,3.5,8
	c1.3,2.6,2.8,5.1,4.4,7.6c1.3,1.9,2.6,3.8,4.1,5.6c0.6,0.8,1.3,1.6,2,2.4c2.4,2.8,5,5.3,7.7,7.7c3.5,3,7.3,5.7,11.3,8
	c7.1,4.1,14.9,7.1,23,8.8c4.8,1,9.8,1.5,14.8,1.6c14,0.1,28.5-3.7,41.9-12.1c1.1-0.7,2.2-1.4,3.3-2.2c1.6,1.6,3.1,3.1,4.7,4.7
	c18,18,36,36,53.9,53.9c4.2-4.2,8.4-8.4,12.9-12.9C283.4,221,264,201.7,244.7,182.3z M227.9,185.8c-11.4,8.9-25.7,14.2-41.3,14.2
	c-4.7,0-9.4-0.5-13.8-1.4c-7.3-1.5-14.2-4.3-20.5-8c-3.7-2.2-7.2-4.8-10.5-7.7c-2.7-2.5-5.3-5.1-7.6-8c-1.9-2.4-3.7-4.9-5.3-7.6
	c-1.5-2.6-2.9-5.2-4.1-8c-1.1-2.5-2-5.1-2.7-7.7c-0.8-2.6-1.4-5.3-1.8-8c-0.5-2.9-0.7-5.9-0.8-8.9c0-0.6,0-1.2,0-1.8
	c0-2.1,0.1-4.2,0.3-6.2c0.2-2.6,0.6-5.2,1.2-7.7c0.6-2.7,1.3-5.4,2.2-8c1.1-3.1,2.3-6,3.8-8.9c0.9-1.8,1.9-3.5,3-5.1
	c0.6-1,1.3-1.9,1.9-2.9c4.3-6,9.5-11.4,15.6-15.7c5.1-3.7,10.8-6.7,16.8-8.9c6.8-2.4,14.2-3.8,21.8-3.9c0.2,0,0.4,0,0.6,0
	c15.6,0,29.9,5.3,41.4,14.3c2.9,2.3,5.5,4.7,8,7.4c11,12,17.8,27.9,17.8,45.4c-0.1,17.7-6.9,33.6-17.8,45.6
	C233.5,181.1,230.8,183.5,227.9,185.8z"/>
</svg>
