<?xml version="1.0" encoding="utf-8"?>
<!-- Generator: Adobe Illustrator 28.2.0, SVG Export Plug-In . SVG Version: 6.00 Build 0)  -->
<svg version="1.1" id="svg2" xmlns:svg="http://www.w3.org/2000/svg"
	 xmlns="http://www.w3.org/2000/svg" xmlns:xlink="http://www.w3.org/1999/xlink" x="0px" y="0px" viewBox="0 0 294.9 135.3"
	 style="enable-background:new 0 0 294.9 135.3;" xml:space="preserve">
<style type="text/css">
	.st0{fill:#3366CC;}
	.st1{fill:#A2A9B1;}
</style>
<g>
	<g>
		<path class="st0" d="M208,40.3c-0.9,0.7-1.8,1.3-2.6,2.1c-22.9,21.6-45.9,43.3-68.8,64.9c-0.8,0.8-1.5,1.7-1.9,2.3
			c-13-13.7-25.7-27.1-38.2-40.2c4-3.8,8.4-7.9,12.8-12.1c8.2,8.6,16.5,17.5,24.9,26.4c20.4-19.3,40.5-38.3,60.7-57.4
			c4.6,4.7,8.8,9.1,13.1,13.4C208,39.8,208,40.1,208,40.3z"/>
	</g>
	<g>
		<path class="st1" d="M45.9,117.4v13.9c-10.7,2-18.6,0.8-23.9-3.4c-5.3-4.3-7.9-11.2-7.9-20.7V86.6c0-8.2-3.4-12.3-10.3-12.3V61
			c6.8,0,10.3-4.1,10.3-12.3V28.1c0-9.6,2.6-16.5,7.9-20.7S35.3,2,45.9,4v13.9c-4.7-1.3-8-1-10,0.7c-2,1.8-3,5.2-3,10.4v19.6
			c0,6.3-0.4,10.3-1.2,12.2c-1.5,3.2-4.5,5.5-9.1,6.9c2.4,0.7,4.4,1.6,5.9,2.6c1.5,1.1,2.6,2.5,3.2,4.3c0.6,1.8,0.9,3.3,1,4.6
			c0.1,1.3,0.1,3.2,0.1,5.9c0,0.6,0,1.1,0,1.5v19.6c0,5.2,0.8,8.5,2.5,9.9C37,117.6,40.6,118,45.9,117.4z"/>
		<path class="st1" d="M249,131.3v-13.9c5.4,0.6,8.9,0.2,10.6-1.2c1.7-1.4,2.5-4.7,2.5-9.9V86.6c0-0.4,0-0.9,0-1.5
			c0-2.6,0-4.6,0.1-5.9c0.1-1.3,0.4-2.8,1-4.6c0.6-1.8,1.6-3.2,3.2-4.3c1.5-1.1,3.5-2,5.9-2.6c-2.4-0.7-4.4-1.6-5.9-2.7
			c-1.5-1.1-2.6-2.6-3.2-4.3s-0.9-3.3-1-4.5c-0.1-1.3-0.1-3.2-0.1-5.9c0-0.7,0-1.2,0-1.6V29c0-5.2-1-8.6-3-10.4c-2-1.8-5.3-2-10-0.7
			V4c10.6-2,18.6-0.8,23.9,3.4s7.9,11.2,7.9,20.7v20.5c0,8.2,3.4,12.3,10.3,12.3v13.3c-6.8,0-10.3,4.1-10.3,12.3v20.5
			c0,9.6-2.6,16.5-7.9,20.7C267.6,132.1,259.6,133.3,249,131.3z"/>
	</g>
</g>
</svg>
